{"title":"Enemy of the State (1998) BDRip 720p x264 Soup","uid":11356635,"size":3118688525,"categoryP":"video","categoryS":"hd___movies","magnet":"?xt=urn:btih:dd68732a972e7872ff077e900b6063852d985a0e&amp;dn=Enemy+of+the+State+%281998%29+BDRip+720p+x264+Soup&amp;tr=udp%3A%2F%2Ftracker.openbittorrent.com%3A80&amp;tr=udp%3A%2F%2Fopen.demonii.com%3A1337&amp;tr=udp%3A%2F%2Ftracker.coppersurfer.tk%3A6969&amp;tr=udp%3A%2F%2Fexodus.desync.com%3A6969","seeders":1,"leechers":1,"uploader":"peaSoup","files":-1,"time":1414951153,"description":"Storyline\n\nRobert dean is a mild-mannered lawyer who works in Washington D.C. He is on the trail of a kingpin named Pintero. Meanwhile, a politician named Thomas Reynolds is negotiating with Congressman Phillip Hammersley about a new surveillance system with satellites. But, Hammersley declines, that is when Reynolds had Hammersley killed, but this murder was caught on tape, and this person was being chased by Reynolds' team of NSA agents, the guy must ditch the tape, so he plants it on Dean (unbeknownst to Dean). Then, the NSA decides to get into Dean's life. That is when Dean's life began to fall apart all around him, with his wife and job both gone. Dean wants to find out what is going on. Then, he meets a man named &quot;Brill&quot; who tells him that Dean has something that the government wants. That is when Dean and Brill formulate a plan to get Dean's life back and turn the Tables on Reynolds.     &lt;a href=&quot; http://imgur.com/GCBFjsA&quot; rel=&quot;nofollow&quot; target=&quot;_NEW&quot;&gt; http://imgur.com/GCBFjsA&lt;/a&gt;                                                            &lt;a href=&quot; http://i.imgur.com/jhhH3Cf.jpg&quot; rel=&quot;nofollow&quot; target=&quot;_NEW&quot;&gt; http://i.imgur.com/jhhH3Cf.jpg&lt;/a&gt;                                                      &lt;a href=&quot; http://i.imgur.com/QIXiHKv.jpg&quot; rel=&quot;nofollow&quot; target=&quot;_NEW&quot;&gt; http://i.imgur.com/QIXiHKv.jpg&lt;/a&gt;                                                      &lt;a href=&quot; http://i.imgur.com/ak1Nk0V.jpg&quot; rel=&quot;nofollow&quot; target=&quot;_NEW&quot;&gt; http://i.imgur.com/ak1Nk0V.jpg&lt;/a&gt;                                                       Format                                   : Matroska\nFormat version                           : Version 2\nFile size                                : 2.90 GiB\nDuration                                 : 2h 12mn\nOverall bit rate                         : 3 146 Kbps\nEncoded date                             : UTC 2014-11-02 16:40:25\nWriting application                      : mkvmerge v7.3.0 ('Nouages') 32bit built on Oct 22 2014 18:44:01\nWriting library                          : libebml v1.3.0 + libmatroska v1.4.1\n\nVideo\nID                                       : 1\nFormat                                   : AVC\nFormat/Info                              : Advanced Video Codec\nFormat profile                           : &lt;a class=&quot;__cf_email__&quot; href=&quot;/cdn-cgi/l/email-protection&quot; data-cfemail=&quot;afe7c6c8c7efe39b819e&quot;&gt;[email&amp;#160;protected]&lt;/a&gt;&lt;script cf-hash='f9e31' type=&quot;text/javascript&quot;&gt;\n/* &lt;![CDATA[ */!function(){try{var t=&quot;currentScript&quot;in document?document.currentScript:function(){for(var t=document.getElementsByTagName(&quot;script&quot;),e=t.length;e--;)if(t[e].getAttribute(&quot;cf-hash&quot;))return t[e]}();if(t&amp;&amp;t.previousSibling){var e,r,n,i,c=t.previousSibling,a=c.getAttribute(&quot;data-cfemail&quot;);if(a){for(e=&quot;&quot;,r=parseInt(a.substr(0,2),16),n=2;a.length-n;n+=2)i=parseInt(a.substr(n,2),16)^r,e+=String.fromCharCode(i);e=document.createTextNode(e),c.parentNode.replaceChild(e,c)}}}catch(u){}}();/* ]]&gt; */&lt;/script&gt;\nFormat settings, CABAC                   : Yes\nFormat settings, ReFrames                : 5 frames\nCodec ID                                 : V_MPEG4/ISO/AVC\nDuration                                 : 2h 12mn\nBit rate                                 : 2 699 Kbps\nWidth                                    : 1 280 pixels\nHeight                                   : 720 pixels\nDisplay aspect ratio                     : 16:9\nFrame rate mode                          : Constant\nFrame rate                               : 23.976 fps\nColor space                              : YUV\nChroma subsampling                       : 4:2:0\nBit depth                                : 8 bits\nScan type                                : Progressive\nBits/(Pixel*Frame)                       : 0.122\nStream size                              : 2.49 GiB (86%)\nWriting library                          : x264 core 142 r2479 dd79a61\n\n\nAudio\nID                                       : 2\nFormat                                   : AC-3\nFormat/Info                              : Audio Coding 3\nMode extension                           : CM (complete main)\nFormat settings, Endianness              : Big\nCodec ID                                 : A_AC3\nDuration                                 : 2h 12mn\nBit rate mode                            : Constant\nBit rate                                 : 384 Kbps\nChannel(s)                               : 6 channels\nChannel positions                        : Front: L C R, Side: L R, LFE\nSampling rate                            : 48.0 KHz\nBit depth                                : 16 bits\nCompression mode                         : Lossy\nStream size                              : 363 MiB (12%)\nLanguage                                 : English\nDefault                                  : Yes\nForced                                   : No","torrent":{"xt":"urn:btih:dd68732a972e7872ff077e900b6063852d985a0e","amp;dn":"Enemy+of+the+State+%281998%29+BDRip+720p+x264+Soup","amp;tr":["udp%3A%2F%2Ftracker.openbittorrent.com%3A80","udp%3A%2F%2Fopen.demonii.com%3A1337","udp%3A%2F%2Ftracker.coppersurfer.tk%3A6969","udp%3A%2F%2Fexodus.desync.com%3A6969"],"infoHash":"dd68732a972e7872ff077e900b6063852d985a0e","infoHashBuffer":{"type":"Buffer","data":[221,104,115,42,151,46,120,114,255,7,126,144,11,96,99,133,45,152,90,14]},"announce":[],"urlList":[]}}